<svg height="512pt" viewBox="0 -7 512.00032 512" width="512pt" xmlns="http://www.w3.org/2000/svg"><path d="m190.601562 237.433594c7.585938 0 14.953126-2.773438 20.625-7.851563 5.953126-5.332031 9.59375-12.769531 10.1875-20.683593h69.175782c1.296875 17.363281 16.734375 30.285156 34.238281 28.34375 25.214844-2.792969 36.316406-33.457032 18.914063-51.792969 8.335937-8.796875 10.730468-21.539063 6.0625-32.886719-12.394532-30.132812-56.632813-22.597656-59.207032 9.328125h-69.195312c-2.582032-31.988281-46.835938-39.394531-59.203125-9.332031-4.667969 11.351562-2.277344 24.09375 6.058593 32.890625-18.382812 19.371093-4.832031 51.984375 22.34375 51.984375zm-10.902343-61.75c-5.707031-5.46875-5.613281-12.582032-3.628907-17.414063 7.054688-17.140625 32.585938-10.089843 30.304688 7.976563-.714844 5.65625 3.671875 10.648437 9.347656 10.648437h80.53125c5.699219 0 10.078125-5.015625 9.371094-10.664062-1.175781-9.367188 6.378906-17.769531 15.738281-17.769531 14.125 0 21.191407 17.390624 10.9375 27.222656-5.585937 5.359375-5.574219 14.175781.011719 19.539062 4.519531 4.34375 6.003906 10.503906 3.976562 16.480469-3.878906 11.410156-17.507812 13.863281-25.507812 6.699219-3.9375-3.523438-5.980469-8.925782-5.058594-14.425782.882813-5.273437-3.207031-10.082031-8.5625-10.082031h-81.40625c-2.71875 0-5.304687 1.171875-7.097656 3.207031-3.265625 3.714844-2.160156 7.464844-2.160156 9.503907 0 9.144531-7.882813 16.808593-17.671875 15.726562-13.171875-1.460937-18.808594-17.816406-9.136719-27.109375 5.582031-5.363281 5.597656-14.179687.011719-19.539062zm0 0"/><path d="m450.148438 297.21875c4.140624 0 7.5-3.359375 7.5-7.5v-92.140625l13.296874 9.203125c11.890626 8.234375 28.175782 5.277344 36.410157-6.617188 8.214843-11.863281 5.246093-28.199218-6.617188-36.414062l-229.84375-159.125c-8.910156-6.167969-20.882812-6.167969-29.792969 0l-229.835937 159.125c-11.867187 8.214844-14.835937 24.550781-6.621094 36.414062 8.214844 11.863282 24.546875 14.832032 36.414063 6.621094l13.292968-9.207031v254.65625c-7.128906 2.457031-12.273437 9.214844-12.273437 17.167969v10.667968c0 10.019532 8.152344 18.171876 18.167969 18.171876h178.25c4.144531 0 7.503906-3.359376 7.503906-7.503907 0-4.140625-3.359375-7.5-7.503906-7.5h-178.25c-1.746094 0-3.167969-1.417969-3.167969-3.167969v-10.667968c0-1.746094 1.421875-3.167969 3.167969-3.167969h391.507812c1.746094 0 3.167969 1.421875 3.167969 3.167969v10.667968c0 1.746094-1.421875 3.167969-3.167969 3.167969h-178.253906c-4.140625 0-7.5 3.359375-7.5 7.5 0 4.144531 3.359375 7.503907 7.5 7.503907h178.253906c10.019532 0 18.167969-8.152344 18.167969-18.171876v-10.667968c0-7.953125-5.144531-14.710938-12.273437-17.167969 0-6.632813 0-121.578125 0-127.515625 0-4.140625-3.359376-7.5-7.5-7.5-4.144532 0-7.503907 3.359375-7.503907 7.5v78.28125h-82.636719v-37.996094c0-57.347656-46.65625-104.003906-104.007812-104.003906s-104.007812 46.65625-104.007812 104.003906v37.996094h-82.636719v-215.808594c9.320312-6.453125 178.089843-123.296875 186.644531-129.21875 13.640625 9.441406 180.976562 125.292969 186.644531 129.21875v102.523438c0 4.144531 3.359375 7.503906 7.503907 7.503906zm-90.140626 120.78125h82.636719v33.234375h-82.636719zm-193.011718-52.996094c0-49.074218 39.925781-89.003906 89.003906-89.003906s89.003906 39.929688 89.003906 89.003906v86.230469h-178.007812c0-9.257813 0-75.199219 0-86.230469zm-15.003906 52.996094v33.234375h-82.636719v-33.234375zm108.277343-375.320312c-1.925781-1.332032-4.324219-1.664063-6.484375-1-.71875.222656-1.414062.558593-2.054687 1-9.691407 6.710937-209.640625 145.140624-219.210938 151.769531-5.066406 3.503906-12.035156 2.238281-15.539062-2.824219-3.507813-5.066406-2.238281-12.035156 2.824219-15.539062l229.839843-159.125c3.800781-2.632813 8.910157-2.632813 12.710938 0l229.839843 159.125c5.0625 3.503906 6.332032 10.476562 2.824219 15.539062-3.511719 5.070312-10.460937 6.339844-15.535156 2.824219-9.558594-6.617188-209.585937-145.101563-219.214844-151.769531zm0 0"/></svg>