<svg height="512" viewBox="0 0 192 192" width="512" xmlns="http://www.w3.org/2000/svg"><path d="m96 0c-52.935 0-96 39.477-96 88a83.343 83.343 0 0 0 21.311 55.3l-12.665 29.549a8 8 0 0 0 10.163 10.642l39.134-14.676a102.68 102.68 0 0 0 38.057 7.185c52.935 0 96-39.477 96-88s-43.065-88-96-88zm-40 91.314v28.686h-16v-28.686l-21.657-21.657 11.314-11.314 18.343 18.344 18.343-18.344 11.314 11.314zm64-19.314h-24v8h16v16h-16v8h24v16h-32a8 8 0 0 1 -8-8v-48a8 8 0 0 1 8-8h32zm28 8a20 20 0 0 1 0 40h-20v-16h20a4 4 0 0 0 0-8 20 20 0 0 1 0-40h20v16h-20a4 4 0 0 0 0 8z"/></svg>